<svg id="e90hTjf5z2y1" xmlns="http://www.w3.org/2000/svg" xmlns:xlink="http://www.w3.org/1999/xlink" viewBox="0 0 28 28" shape-rendering="geometricPrecision" text-rendering="geometricPrecision"><ellipse rx="64.186715" ry="64.186715" transform="matrix(.189322 0 0 0.189322 14.151957 13.848043)" fill="#fff" stroke-width="0"/><path d="M232.7866,265.376724c2.471318,1.218251,4.171304,2.777374,6.13208,4.709473.718008.68707,1.436016,1.37414,2.175781,2.082031c1.511719,2.105469,1.511719,2.105469,1.314103,4.007873-.972958,2.543512-2.19434,3.850928-4.1288,5.764588-1.050976,1.050636-1.050976,1.050636-2.123184,2.122497-.760421.744938-1.520842,1.489875-2.304306,2.257386-.775447.771201-1.550893,1.542403-2.349838,2.336975-2.479305,2.462507-4.968836,4.914381-7.458756,7.36615-1.682324,1.667279-3.363974,3.335239-5.044922,5.003906-4.123057,4.089973-8.254558,8.171263-12.392578,12.246094-3.424827-1.617762-5.656905-3.423433-8.328125-6.132813-.799219-.805664-1.598437-1.611328-2.421875-2.441406-1.2375-1.262637-1.2375-1.262637-2.5-2.550781-.840469-.849493-1.680937-1.698985-2.546875-2.574219-2.072282-2.095831-4.139749-4.196188-6.203125-6.300781c1.605353-3.410594,3.405189-5.617925,6.125-8.25.724453-.706407,1.448906-1.412813,2.195313-2.140625.554296-.531094,1.108593-1.062188,1.679687-1.609375c4.293788,1.92287,6.771537,4.624788,10,8c3.870535-1.574369,6.201224-4.043423,9.0625-7.042969.970926-1.001066,1.942294-2.001705,2.914063-3.001953c1.519379-1.575333,3.034514-3.154237,4.541992-4.740967c1.461954-1.534293,2.938995-3.052666,4.418945-4.56958.875274-.914187,1.750547-1.828374,2.652344-2.770264c2.410156-1.874267,2.410156-1.874267,4.590576-1.77124Z" transform="matrix(.214789 0 0 0.214789-31.712242-47.857252)" fill="#7a9a01"/></svg>
