<svg width="220" height="42" xmlns="http://www.w3.org/2000/svg" fill="none">
 <g>
  <title>Layer 1</title>
  <g stroke="null" id="svg_7">
   <path stroke="null" id="svg_1" fill="black" d="m95.87715,25.58236c2.20342,0 3.44883,1.43701 3.44883,4.11943l0,11.01708l5.55644,0l0,-12.8373c0,-4.59844 -2.49082,-7.37666 -6.70605,-7.37666c-2.96982,0 -4.59844,1.62861 -5.74804,3.16142l-0.0958,0.0958l0,-2.87402l-5.55644,0l0,19.83075l5.55644,0l0,-11.11289c-0.0958,-2.58662 1.24541,-4.02363 3.54463,-4.02363l-0.00001,0.00002z"/>
   <path stroke="null" id="svg_2" fill="black" d="m79.20782,30.94721c0,1.43701 -0.479,2.87402 -1.34121,3.83203c-0.95801,1.05381 -2.29922,1.62861 -3.83203,1.62861c-1.53281,0 -2.87402,-0.5748 -3.83203,-1.62861c-0.95801,-1.05381 -1.43701,-2.39502 -1.43701,-3.92783l0,-0.0958c0,-1.43701 0.479,-2.87402 1.34121,-3.83203c0.95801,-1.05381 2.29922,-1.62861 3.83203,-1.62861c1.53281,0 2.87402,0.5748 3.83203,1.62861c0.86221,1.05381 1.43701,2.49082 1.43701,4.02363zm-5.26904,-10.44228c-2.96982,0 -5.65224,1.05381 -7.66406,3.06562c-2.01182,1.91601 -3.06562,4.50263 -3.06562,7.28086l0,0.0958c0,2.77822 1.05381,5.36484 3.06562,7.28086c2.01182,1.91601 4.69424,2.96982 7.66406,2.96982c2.96982,0 5.65224,-1.05381 7.66406,-3.06562c2.01182,-1.91601 3.06562,-4.50263 3.06562,-7.28086l0,-0.0958c0,-2.77822 -1.05381,-5.36484 -3.06562,-7.28086c-1.91601,-1.91601 -4.69424,-2.96982 -7.66406,-2.96982z"/>
   <path stroke="null" id="svg_3" fill="black" d="m58.32326,40.71888l6.32285,0l-7.75986,-12.07089l7.47246,-7.75986l-6.61025,0l-6.61025,7.37666l0,-13.98691l-5.55644,0l0,26.441l5.55644,0l0,-6.03545l2.01182,-2.10762l5.17324,8.14306l-0.00001,0.00001z"/>
   <path stroke="null" id="svg_4" fill="black" d="m31.30745,41.10208c2.96982,0 4.59844,-1.62861 5.74804,-3.16142l0.0958,-0.0958l0,2.87402l5.55644,0l0,-19.83075l-5.55644,0l0,11.01708c0,2.58662 -1.34121,4.11943 -3.54463,4.11943c-2.20342,0 -3.44883,-1.43701 -3.44883,-4.11943l0,-11.01708l-5.55644,0l0,12.8373c0,4.59844 2.49082,7.37666 6.70605,7.37666l0.00001,-0.00001z"/>
   <path stroke="null" id="svg_5" fill="black" d="m20.86517,14.85268l-6.41865,10.15488l0,-0.0958l-6.22705,-10.05908l-6.51445,0l9.96328,15.32812l0,10.53808l5.55644,0l0,-10.63388l9.96328,-15.23232l-6.32285,0z"/>
   <path stroke="null" id="svg_6" fill="#F2A900" d="m73.93878,0.57837l-2.01182,6.32285l-4.31103,-5.07744l0.67061,6.61025l-5.93965,-2.96982l3.06562,5.84384l-6.61025,-0.5748l5.07744,4.31103l-6.32285,2.01182l5.46064,1.72441l4.69424,-5.07744l1.91601,2.10762l4.40683,-4.69424l4.31103,4.69424l1.91601,-2.10762l4.69424,4.98164l5.46064,-1.72441l-6.32285,-2.01182l5.07744,-4.31103l-6.61025,0.67061l2.96982,-5.93965l-5.84384,3.06562l0.5748,-6.61025l-4.31103,5.07744l-2.01182,-6.32285l0.00002,0z"/>
  </g>
  <text xml:space="preserve" text-anchor="start" font-family="'Montserrat'" font-size="14" stroke-width="0" id="svg_10" y="39.84422" x="119.87937" fill="#000000" font-weight="bold">Vendor Portal</text>
 </g>

</svg>